# xmcd
#
# Track frame offsets: 
#        150
#        14607
#        27980
#        49752
#        60385
#        77077
#        92827
#        108502
#        132060
#        157665
#        174577
#        180827
#
# Disc length: 2651 seconds
#
# Revision: 4
# Processed by: cddbd v1.5.2PL0 Copyright (c) Steve Scherf et al.
# Submitted via: ExactAudioCopy v0.99pb4
#
DISCID=880a590c
DTITLE=Jimi Hendrix - Black Strings
DYEAR=1900
DGENRE=
TTITLE0=Angel
TTITLE1=Wait until Tomorrow
TTITLE2=Maniac Depression
TTITLE3=Little wing
TTITLE4=Can you please crawl out your window
TTITLE5=Stone Free
TTITLE6=One Rainy Wish
TTITLE7=Experience the Blues
TTITLE8=Driving South
TTITLE9=Burning of the Midnightlamp
TTITLE10=Send my love to Linda
TTITLE11=Things that i used to do
EXTD=
EXTT0=
EXTT1=
EXTT2=
EXTT3=
EXTT4=
EXTT5=
EXTT6=
EXTT7=
EXTT8=
EXTT9=
EXTT10=
EXTT11=
PLAYORDER=
